<svg xmlns="http://www.w3.org/2000/svg" fill="none" viewBox="0 0 24 24" id="Globe--Streamline-Guidance-Free" height="24" width="24">
  <desc>
    Globe Streamline Icon: https://streamlinehq.com
  </desc>
  <path stroke="#000000" d="M23 12c0 -6.075 -4.925 -11 -11 -11m11 11c0 6.075 -4.925 11 -11 11m11 -11c0 2.21 -4.925 4 -11 4S1 14.21 1 12M12 1C5.925 1 1 5.925 1 12M12 1c2.761 0 5 4.925 5 11s-2.239 11 -5 11m0 -22C9.239 1 7 5.925 7 12s2.239 11 5 11M1 12c0 6.075 4.925 11 11 11" stroke-width="1"></path>
</svg>