<svg xmlns="http://www.w3.org/2000/svg" fill="none" viewBox="0 0 24 24" id="Hide-Eye-Crossbar--Streamline-Guidance-Free" height="24" width="24">
  <desc>
    Hide Eye Crossbar Streamline Icon: https://streamlinehq.com
  </desc>
  <path stroke="#000000" d="M17.416 17.416a8.13 8.13 0 0 0 0.478 -0.47L20.5 14c1 -1 2.224 -2 3.5 -2 -1.276 0 -2.5 -1 -3.5 -2l-2.606 -2.947a8.079 8.079 0 0 0 -11.31 -0.469m8.713 12.213a8.077 8.077 0 0 1 -9.19 -1.85L3.5 14c-1 -1 -2.224 -2 -3.5 -2 1.276 0 2.5 -1 3.5 -2l1.408 -1.592M0.5 0.5l23 23m-9.732 -9.732a2.5 2.5 0 0 0 -3.536 -3.536" stroke-width="1"></path>
</svg>