<svg xmlns="http://www.w3.org/2000/svg" fill="none" viewBox="0 0 24 24" id="More-Add-Plus--Streamline-Guidance-Free" height="24" width="24">
  <desc>
    More Add Plus Streamline Icon: https://streamlinehq.com
  </desc>
  <path stroke="#000000" d="M9.5 9.5v-9h0.25l0.27 0.054a10.1 10.1 0 0 0 3.96 0L14.25 0.5h0.25v9h9v0.25l-0.054 0.27a10.101 10.101 0 0 0 0 3.96l0.054 0.27v0.25h-9v9h-0.25l-0.27 -0.054a10.101 10.101 0 0 0 -3.96 0l-0.27 0.054H9.5v-9h-9v-0.25l0.054 -0.27a10.1 10.1 0 0 0 0 -3.96L0.5 9.75V9.5h9Z" stroke-width="1"></path>
</svg>