<svg xmlns="http://www.w3.org/2000/svg" fill="none" viewBox="0 0 24 24" id="Question-Mark--Streamline-Guidance-Free" height="24" width="24">
  <desc>
    Question Mark Streamline Icon: https://streamlinehq.com
  </desc>
  <path stroke="#000000" d="M5 8.5v-1a7 7 0 0 1 14 0 4.83 4.83 0 0 1 -1.414 3.414l-2.414 2.414A4 4 0 0 0 14 16.157v0.343h-4v-1.172c0 -1.81 0.72 -3.547 2 -4.828l1.293 -1.293A2.414 2.414 0 0 0 14 7.5a2 2 0 1 0 -4 0v1H5Z" stroke-width="1"></path>
  <path stroke="#000000" d="M12 19.5a2 2 0 1 1 0 4 2 2 0 0 1 0 -4Z" stroke-width="1"></path>
</svg>